<?xml version="1.0" standalone="no"?>
<!DOCTYPE svg PUBLIC "-//W3C//DTD SVG 20010904//EN"
 "http://www.w3.org/TR/2001/REC-SVG-20010904/DTD/svg10.dtd">
<svg version="1.0" xmlns="http://www.w3.org/2000/svg"
 width="700.000000pt" height="700.000000pt" viewBox="0 0 700.000000 700.000000"
 preserveAspectRatio="xMidYMid meet">
<metadata>
Created by potrace 1.14, written by Peter Selinger 2001-2017
</metadata>
<g transform="translate(0.000000,700.000000) scale(0.100000,-0.100000)"
fill="#000000" stroke="none">
<path d="M499 6543 c-1 -5 -2 -1377 -3 -3050 l-1 -3042 493 0 492 -1 1 28 c0
15 1 151 2 302 l0 275 -246 3 -247 2 0 2440 0 2440 245 0 245 0 1 28 c1 39 1
511 0 550 l-1 32 -490 0 c-269 0 -491 -3 -491 -7z"/>
<path d="M5519 6523 c-1 -35 -1 -530 0 -560 l1 -23 245 0 245 0 0 -2440 0
-2440 -245 0 c-189 0 -245 -3 -246 -12 -1 -16 -1 -568 0 -586 1 -10 103 -12
493 -10 l493 3 1 3035 c0 1669 -2 3041 -4 3048 -3 9 -111 12 -493 12 l-489 0
-1 -27z"/>
<path d="M4290 5826 c-3 -2 -25 -7 -50 -10 -230 -27 -430 -169 -524 -371 -47
-102 -88 -260 -103 -404 -10 -84 -9 -394 0 -486 28 -275 100 -456 233 -589
107 -107 228 -163 407 -189 90 -13 283 -15 342 -3 17 4 46 9 65 12 155 26 322
130 411 259 150 215 205 595 154 1055 -14 128 -72 319 -116 382 -11 14 -19 29
-19 33 0 12 -62 88 -105 129 -77 74 -176 126 -310 162 -56 15 -374 32 -385 20z
m245 -388 c105 -53 151 -146 179 -368 13 -100 15 -481 2 -540 -2 -14 -7 -42
-10 -63 -16 -107 -55 -208 -99 -256 -47 -51 -98 -74 -169 -77 -112 -5 -184 36
-235 133 -62 116 -81 238 -83 528 -1 150 1 190 15 305 28 222 106 338 244 359
62 10 108 3 156 -21z"/>
<path d="M2434 5771 c-35 -166 -147 -233 -404 -243 l-65 -3 -3 -162 -2 -161
192 -1 c106 0 201 0 211 -1 16 0 17 -32 17 -525 l0 -525 -210 0 -210 0 2 -172
3 -172 653 0 c360 -1 657 1 661 4 4 3 7 80 7 173 l0 167 -203 0 c-112 0 -203
3 -204 8 -1 4 -2 374 -2 822 l-2 815 -218 1 -218 0 -5 -25z"/>
<path d="M2450 3229 c-96 -11 -130 -19 -204 -43 -107 -37 -163 -72 -246 -155
-60 -60 -85 -96 -122 -171 -46 -92 -81 -201 -93 -285 -3 -23 -7 -51 -10 -63
-10 -52 -17 -175 -18 -292 -2 -358 55 -605 179 -775 106 -146 229 -218 444
-261 65 -12 348 -13 400 0 14 3 48 11 75 17 98 23 217 87 290 156 132 125 215
334 242 613 14 139 5 542 -12 569 -1 3 -6 22 -9 41 -55 351 -250 570 -563 635
-84 17 -265 25 -353 14z m246 -387 c131 -67 184 -252 184 -642 0 -466 -89
-661 -300 -662 -156 0 -244 101 -285 327 -21 119 -27 442 -11 599 28 285 128
413 311 402 35 -2 78 -12 101 -24z"/>
<path d="M4328 3202 c-38 -2 -48 -7 -48 -21 0 -34 -31 -106 -58 -136 -60 -66
-157 -100 -317 -110 -49 -4 -91 -8 -93 -10 -3 -3 -5 -229 -3 -295 l1 -25 207
0 208 0 0 -522 c0 -462 -1 -523 -15 -524 -8 0 -102 -1 -207 -1 l-193 -1 -1
-31 c0 -17 -1 -95 -2 -174 l-2 -142 663 0 c523 0 662 3 662 13 1 23 1 262 1
298 l-1 36 -187 1 c-104 0 -195 0 -204 1 -14 1 -16 78 -15 812 1 446 -2 815
-5 821 -6 9 -287 17 -391 10z"/>
</g>
</svg>
